# xmcd
#
# Track frame offsets: 
#        150
#        23076
#        46989
#        62307
#        89768
#        113951
#        130888
#        153493
#        170521
#        197329
#        224278
#        244683
#        269367
#
# Disc length: 3858 seconds
#
# Revision: 1
# Processed by: cddbd v1.5.2PL0 Copyright (c) Steve Scherf et al.
# Submitted via: ExactAudioCopy v0.95a5
#
DISCID=b00f100d
DTITLE=Abi Wallenstein and Blues Culture - Blues Culture
DYEAR=2007
DGENRE=Blues
TTITLE0=Drive Me Crazy
TTITLE1=Blues Culture
TTITLE2=Nobody's  Children
TTITLE3=Who Is He And What Is He To You?
TTITLE4=Country Blues
TTITLE5=Honey Bee Boogie
TTITLE6=As Long As I Can See The Light
TTITLE7=Good Advice
TTITLE8=Don't Mind People Grinnin' In Your Face
TTITLE9=Come Back Baby
TTITLE10=Keep on Keepin'
TTITLE11=Wild Cow Blues
TTITLE12=Remove This Rope
EXTD=
EXTT0=
EXTT1=
EXTT2=
EXTT3=
EXTT4=
EXTT5=
EXTT6=
EXTT7=
EXTT8=
EXTT9=
EXTT10=
EXTT11=
EXTT12=
PLAYORDER=
